<?xml version="1.0" encoding="UTF-8"?>
<svg version="1.1" xmlns="http://www.w3.org/2000/svg" width="500" height="500">
<path d="M0 0 C7.65044458 6.35307898 14.24134793 15.100305 15.22119141 25.30322266 C17.28396665 72.6592755 13.28134728 148.43730545 -8 191 C-7.34 191 -6.68 191 -6 191 C-6 190.34 -6 189.68 -6 189 C-5.34 189 -4.68 189 -4 189 C-3.67 188.01 -3.34 187.02 -3 186 C-2.34 186 -1.68 186 -1 186 C-1 185.34 -1 184.68 -1 184 C0.3984375 182.58984375 0.3984375 182.58984375 2.375 180.9375 C5.52178208 178.26933688 8.59207688 175.54691752 11.625 172.75 C16.20476422 168.60774792 20.99617197 164.81159126 25.875 161.03417969 C30.11659635 157.73645505 34.17378285 154.29177917 38.1328125 150.65625 C43.38207547 146 43.38207547 146 46 146 C46 145.34 46 144.68 46 144 C48.3594488 142.08578737 50.73052255 140.28159318 53.1875 138.5 C54.67502053 137.40438046 56.16199342 136.30801703 57.6484375 135.2109375 C58.39061523 134.6653418 59.13279297 134.11974609 59.89746094 133.55761719 C62.73601384 131.45474126 65.52397422 129.29385338 68.3125 127.125 C80.48565076 117.72453778 92.8941401 108.65957165 105.5625 99.9375 C106.89945923 99.00901245 106.89945923 99.00901245 108.26342773 98.06176758 C120.15969052 89.94548038 130.87666542 84.82035589 145.55078125 86.26171875 C156.22483595 88.54642582 166.40188977 94.78311547 172.6875 103.75 C173.24824219 104.52859375 173.80898438 105.3071875 174.38671875 106.109375 C180.23483771 116.58784481 180.83237478 128.96233672 178.19140625 140.546875 C172.37897358 156.07351175 159.37401891 163.15202917 145.1875 169.875 C144.22811523 170.33132812 143.26873047 170.78765625 142.28027344 171.2578125 C110.62292611 186.13236209 78.17580784 199.91916904 45 211 C42.86188085 211.72106271 40.72386253 212.44242444 38.5859375 213.1640625 C29.42718166 216.24321012 20.27245053 219.27844934 11 222 C11.71841064 222.20568604 12.43682129 222.41137207 13.17700195 222.62329102 C27.12086065 226.63441617 40.9220482 230.76882881 54.453125 236.01660156 C57.30654751 237.11836401 60.16844451 238.19629797 63.03125 239.2734375 C77.51915155 244.7510791 91.80521844 250.62990702 106.03759766 256.73779297 C108.78226515 257.90722852 111.53442322 259.05516444 114.29296875 260.19140625 C122.37215702 263.52307984 130.30030531 266.99851407 138.07128906 271.00292969 C141.48339625 272.75953937 144.90572589 274.42518735 148.421875 275.96484375 C162.24752805 282.04686338 172.14696678 289.33598568 178.1328125 303.72265625 C180.54309041 312.83176962 180.6432611 325.22442994 176.37890625 333.73828125 C175.92386719 334.48464844 175.46882813 335.23101562 175 336 C174.17822266 337.38251953 174.17822266 337.38251953 173.33984375 338.79296875 C167.24598594 348.06514255 158.69725351 354.05169144 148 357 C144.88306184 357.43975091 141.83259821 357.52514805 138.6875 357.5 C137.85154297 357.49427979 137.01558594 357.48855957 136.15429688 357.48266602 C129.15992518 357.28121834 123.96427006 355.73481448 118 352 C116.75863281 351.27296875 116.75863281 351.27296875 115.4921875 350.53125 C90.86443006 335.53404845 67.83873406 317.05450111 45.45703125 298.9453125 C43.49326313 297.39053265 41.51366307 295.87173765 39.51171875 294.3671875 C38.60836792 293.6851123 38.60836792 293.6851123 37.68676758 292.98925781 C36.49930772 292.09510262 35.30785551 291.20621944 34.11206055 290.32324219 C32.7050082 289.26206812 31.34727629 288.13610446 30 287 C30 286.34 30 285.68 30 285 C29.43667969 284.74476563 28.87335938 284.48953125 28.29296875 284.2265625 C19.09825438 279.30809519 11.40174764 270.73390644 3.92700195 263.58544922 C0.39887784 260.21719259 -3.11532864 256.96301404 -7 254 C-6.84442627 254.61069336 -6.68885254 255.22138672 -6.52856445 255.85058594 C3.10581378 293.9921171 8.60059174 333.1918816 12.70751953 372.29199219 C12.98903629 374.89848957 13.30078015 377.49958375 13.62109375 380.1015625 C14.74540007 389.55395991 15.27323626 398.98216662 15.4375 408.5 C15.47190186 409.5621875 15.50630371 410.624375 15.54174805 411.71875 C15.6003883 422.59694106 11.74505606 433.17057514 4 441 C-7.34586911 450.45806904 -18.60324712 452.67727078 -33.10546875 451.51171875 C-38.01818479 450.86621644 -41.76451494 449.50024228 -46 447 C-47.010625 446.46375 -48.02125 445.9275 -49.0625 445.375 C-50.0215625 444.694375 -50.0215625 444.694375 -51 444 C-51 443.34 -51 442.68 -51 442 C-51.639375 441.731875 -52.27875 441.46375 -52.9375 441.1875 C-55 440 -55 440 -56 437 C-56.66 437 -57.32 437 -58 437 C-67.75528731 418.86989057 -66.44086903 402.53278767 -64.4375 382.625 C-64.35207947 381.75938446 -64.26665894 380.89376892 -64.1786499 380.00192261 C-60.25469263 340.62211314 -55.32490609 300.19345496 -45.38427734 261.81933594 C-44.88637582 259.88859799 -44.43691045 257.94544704 -44 256 C-44.33 255.67 -44.66 255.34 -45 255 C-45.4125 255.42410156 -45.825 255.84820312 -46.25 256.28515625 C-49.97969394 260.07312666 -53.81697834 263.65578134 -57.84375 267.125 C-60.19962958 269.17359094 -62.5050746 271.27203002 -64.8125 273.375 C-69.15949798 277.29660368 -73.62565183 281.03658417 -78.1796875 284.71484375 C-80.15775043 286.31756787 -82.11995171 287.93083837 -84.0703125 289.56640625 C-85.05773437 290.39011719 -86.04515625 291.21382813 -87.0625 292.0625 C-88.41021484 293.19365234 -88.41021484 293.19365234 -89.78515625 294.34765625 C-92 296 -92 296 -94 296 C-94 296.66 -94 297.32 -94 298 C-95.4609375 299.2890625 -95.4609375 299.2890625 -97.375 300.625 C-98.00148437 301.07101562 -98.62796875 301.51703125 -99.2734375 301.9765625 C-101 303 -101 303 -103 303 C-103 303.66 -103 304.32 -103 305 C-104.4609375 306.2890625 -104.4609375 306.2890625 -106.375 307.625 C-107.00148438 308.07101562 -107.62796875 308.51703125 -108.2734375 308.9765625 C-110 310 -110 310 -112 310 C-112 310.66 -112 311.32 -112 312 C-113.73828125 313.453125 -113.73828125 313.453125 -116.3125 315.25 C-117.32054687 315.96414063 -118.32859375 316.67828125 -119.3671875 317.4140625 C-119.94178711 317.82043945 -120.51638672 318.22681641 -121.10839844 318.64550781 C-123.95026635 320.68044369 -126.75007921 322.77100983 -129.55517578 324.85620117 C-176.18819026 359.47970905 -176.18819026 359.47970905 -198 357 C-202.33718917 355.82942529 -206.08580623 354.18584847 -210 352 C-211.0725 351.4225 -212.145 350.845 -213.25 350.25 C-221.74552781 343.29911361 -227.39381043 335.16607655 -229.8125 324.375 C-230.41725254 313.48945424 -229.57143455 304.58207716 -224 295 C-223.360625 293.865625 -222.72125 292.73125 -222.0625 291.5625 C-194.30125183 255.06922718 -104.09492395 233.0909009 -61 222 C-61.71841064 221.79431396 -62.43682129 221.58862793 -63.17700195 221.37670898 C-78.01652541 217.10793467 -92.60815853 212.59048601 -107 207 C-108.84130803 206.29193976 -110.68263206 205.58392081 -112.52423096 204.87661743 C-123.72426755 200.57327338 -134.91370704 196.24326466 -146.0625 191.80859375 C-147.83560547 191.10367798 -147.83560547 191.10367798 -149.64453125 190.38452148 C-153.97365123 188.59825552 -158.19807412 186.62063134 -162.43359375 184.625 C-166.68593607 182.68745958 -170.99411359 180.90899055 -175.3125 179.125 C-182.86681308 175.98860772 -190.1994038 172.54758838 -197.47265625 168.80859375 C-200.46021268 167.27676803 -203.46955028 165.81873023 -206.5 164.375 C-216.51217756 159.29344254 -223.66411229 152.36876031 -227.875 141.75 C-231.41285455 129.95715151 -230.96335344 118.46234945 -225.375 107.4375 C-219.23754432 96.87399455 -211.02450278 91.01743776 -199.46484375 87.15234375 C-187.80919528 84.29055039 -177.3494297 86.53409861 -167.17041016 92.6328125 C-153.35650693 101.33448383 -140.2368797 111.17236237 -127.15234375 120.921875 C-124.58106628 122.83696857 -121.99655405 124.72692213 -119.37890625 126.578125 C-118.36699219 127.29484375 -117.35507813 128.0115625 -116.3125 128.75 C-115.46300781 129.34296875 -114.61351562 129.9359375 -113.73828125 130.546875 C-113.16464844 131.02640625 -112.59101563 131.5059375 -112 132 C-112 132.66 -112 133.32 -112 134 C-111.30132812 134.22429687 -110.60265625 134.44859375 -109.8828125 134.6796875 C-106.35978358 136.29321565 -103.73817295 138.57425165 -100.875 141.125 C-95.76580865 145.58405098 -90.54528607 149.60159401 -84.94921875 153.44140625 C-84.30597656 153.95574219 -83.66273438 154.47007812 -83 155 C-83 155.66 -83 156.32 -83 157 C-82.4740625 157.21785156 -81.948125 157.43570313 -81.40625 157.66015625 C-78.08928532 159.50710249 -75.35129337 161.95797391 -72.5 164.4375 C-71.36546639 165.41638898 -70.23007067 166.39427981 -69.09375 167.37109375 C-68.29710937 168.05921143 -68.29710937 168.05921143 -67.484375 168.76123047 C-66.23305029 169.80551033 -64.91897597 170.77391493 -63.59375 171.72265625 C-63.0678125 172.14417969 -62.541875 172.56570312 -62 173 C-62 173.66 -62 174.32 -62 175 C-61.40670898 175.27183105 -60.81341797 175.54366211 -60.20214844 175.82373047 C-58.04741637 176.97467272 -56.53798878 178.15429055 -54.765625 179.8203125 C-54.19199219 180.35527344 -53.61835938 180.89023438 -53.02734375 181.44140625 C-52.44082031 181.99699219 -51.85429687 182.55257812 -51.25 183.125 C-50.64800781 183.68832031 -50.04601562 184.25164062 -49.42578125 184.83203125 C-47.94665849 186.21724146 -46.47280359 187.6080729 -45 189 C-45.59201843 182.58432202 -46.71732269 176.56151294 -48.25 170.3125 C-58.16548858 127.96367519 -64.32181689 82.47543132 -66 39 C-66.04125 37.98292969 -66.0825 36.96585938 -66.125 35.91796875 C-66.40256149 23.23687817 -62.73138932 12.79794978 -54.33203125 3.1796875 C-53 2 -53 2 -51 2 C-51 1.34 -51 0.68 -51 0 C-34.18203196 -9.59979875 -16.40023157 -11.92984587 0 0 Z " fill="#CA6BE5" transform="translate(275,28)"/>
<path d="M0 0 C0.66 0 1.32 0 2 0 C1.40584291 3.14780702 0.79780079 6.29278645 0.1875 9.4375 C0.02185547 10.31599609 -0.14378906 11.19449219 -0.31445312 12.09960938 C-1.45135395 17.91281925 -2.98040934 23.43144473 -5 29 C-4.34 29.33 -3.68 29.66 -3 30 C-3.66 30.66 -4.32 31.32 -5 32 C-5.66 31.67 -6.32 31.34 -7 31 C-4.71286417 20.65564453 -2.40618638 10.31743552 0 0 Z M-3 27 C-2.01 27.495 -2.01 27.495 -1 28 C-1.99 28.495 -1.99 28.495 -3 29 C-3 28.34 -3 27.68 -3 27 Z " fill="#C75EE6" transform="translate(272,190)"/>
</svg>
